HIERARCHY
ROOT Hips
{
    OFFSET 0.000 93.594 0.000
    CHANNELS 6 Xposition Yposition Zposition Yrotation Xrotation Zrotation
    JOINT RightHip
    {
        OFFSET -9.500 -1.594 0.000
        CHANNELS 3 Yrotation Xrotation Zrotation
        JOINT RightKnee
        {
            OFFSET 0.000 -42.000 0.000
            CHANNELS 3 Yrotation Xrotation Zrotation
            JOINT RightAnkle
            {
                OFFSET 0.000 -42.000 0.000
                CHANNELS 3 Yrotation Xrotation Zrotation
                End Site
                {
                    OFFSET 0.000 -8.000 17.500
                }
            }
        }
    }
    JOINT LeftHip
    {
        OFFSET 9.500 -1.594 0.000
        CHANNELS 3 Yrotation Xrotation Zrotation
        JOINT LeftKnee
        {
            OFFSET 0.000 -42.000 0.000
            CHANNELS 3 Yrotation Xrotation Zrotation
            JOINT LeftAnkle
            {
                OFFSET 0.000 -42.000 0.000
                CHANNELS 3 Yrotation Xrotation Zrotation
                End Site
                {
                    OFFSET 0.000 -8.000 17.500
                }
            }
        }
    }
    JOINT Chest
    {
        OFFSET 0.000 14.348 0.000
        CHANNELS 3 Yrotation Xrotation Zrotation
        JOINT Chest2
        {
            OFFSET 0.000 9.746 0.000
            CHANNELS 3 Yrotation Xrotation Zrotation
            JOINT Chest3
            {
                OFFSET 0.000 10.149 0.000
                CHANNELS 3 Yrotation Xrotation Zrotation
                JOINT Chest4
                {
                    OFFSET 0.000 9.746 0.000
                    CHANNELS 3 Yrotation Xrotation Zrotation
                    JOINT Neck
                    {
                        OFFSET 0.000 10.417 0.000
                        CHANNELS 3 Yrotation Xrotation Zrotation
                        JOINT Head
                        {
                            OFFSET 0.000 9.000 0.000
                            CHANNELS 3 Yrotation Xrotation Zrotation
                            End Site
                            {
                                OFFSET 0.000 16.000 0.000
                            }
                        }
                    }
                    JOINT RightCollar
                    {
                        OFFSET -3.200 6.945 0.000
                        CHANNELS 3 Yrotation Xrotation Zrotation
                        JOINT RightShoulder
                        {
                            OFFSET -12.800 0.000 0.000
                            CHANNELS 3 Yrotation Xrotation Zrotation
                            JOINT RightElbow
                            {
OFFSET -0 -27 0.000
						CHANNELS 3 Xrotation Yrotation Zrotation
                                JOINT RightWrist
                                {
OFFSET -0 -26 0.000
						CHANNELS 3 Xrotation Yrotation Zrotation
                                    JOINT RightFinger0
                                    {
OFFSET -0.196 -2.56 3.210
						CHANNELS 3 Xrotation Yrotation Zrotation
                                        JOINT RightFinger01
                                        {
OFFSET -0 -3.788 0.000
						CHANNELS 3 Xrotation Yrotation Zrotation
                                            JOINT RightFinger0Nub
                                            {
OFFSET -0 -2.631 0.000
						CHANNELS 3 Xrotation Yrotation Zrotation
                                                End Site
                                                {
OFFSET 0 -2.256 0
                                                }
                                            }
                                        }
                                    }
                                    JOINT RightFinger1
                                    {
OFFSET -0.523 -3.316 2.035
						CHANNELS 3 Xrotation Yrotation Zrotation
                                        JOINT RightFinger11
                                        {
OFFSET 0.094 -5.366 1.028
						CHANNELS 3 Xrotation Yrotation Zrotation
                                            JOINT RightFinger12
                                            {
OFFSET -0 -3.723 0.000
						CHANNELS 3 Xrotation Yrotation Zrotation
                                                JOINT RightFinger1Nub
                                                {
OFFSET -0 -2.111 0.000
						CHANNELS 3 Xrotation Yrotation Zrotation
                                                    End Site
                                                    {
OFFSET 0 -1.857 0
                                                    }
                                                }
                                            }
                                        }
                                    }
                                    JOINT RightFinger2
                                    {
OFFSET -0.532 -3.479 0.778
						CHANNELS 3 Xrotation Yrotation Zrotation
                                        JOINT RightFinger21
                                        {
OFFSET 0.086 -5.322 0.323
						CHANNELS 3 Xrotation Yrotation Zrotation
                                            JOINT RightFinger22
                                            {
OFFSET -0 -4.062 0.000
						CHANNELS 3 Xrotation Yrotation Zrotation
                                                JOINT RightFinger2Nub
                                                {
OFFSET -0 -2.547 0.000
						CHANNELS 3 Xrotation Yrotation Zrotation
                                                    End Site
                                                    {
OFFSET 0 -2.031 0
                                                    }
                                                }
                                            }
                                        }
                                    }
                                    JOINT RightFinger3
                                    {
OFFSET -0.553 -3.461 -0.133
						CHANNELS 3 Xrotation Yrotation Zrotation
                                        JOINT RightFinger31
                                        {
OFFSET 0.023 -4.767 -0.493
						CHANNELS 3 Xrotation Yrotation Zrotation
                                            JOINT RightFinger32
                                            {
OFFSET -0 -3.541 0.000
						CHANNELS 3 Xrotation Yrotation Zrotation
                                                JOINT RightFinger3Nub
                                                {
OFFSET -0 -2.456 0.000
						CHANNELS 3 Xrotation Yrotation Zrotation
                                                    End Site
                                                    {
OFFSET 0 -1.91 0
                                                    }
                                                }
                                            }
                                        }
                                    }
                                    JOINT RightFinger4
                                    {
OFFSET -0.483 -3.251 -1.236
						CHANNELS 3 Xrotation Yrotation Zrotation
                                        JOINT RightFinger41
                                        {
OFFSET 0.023 -4.259 -1.122
						CHANNELS 3 Xrotation Yrotation Zrotation
                                            JOINT RightFinger42
                                            {
OFFSET -0 -2.835 0.000
						CHANNELS 3 Xrotation Yrotation Zrotation
                                                JOINT RightFinger4Nub
                                                {
OFFSET -0 -1.792 0.000
						CHANNELS 3 Xrotation Yrotation Zrotation
                                                    End Site
                                                    {
OFFSET 0 -1.692 0
                                                    }
                                                }
                                            }
                                        }
                                    }
                                }
                            }
                        }
                    }
                    JOINT LeftCollar
                    {
                        OFFSET 3.200 6.945 0.000
                        CHANNELS 3 Yrotation Xrotation Zrotation
                        JOINT LeftShoulder
                        {
                            OFFSET 12.800 0.000 0.000
                            CHANNELS 3 Yrotation Xrotation Zrotation
                            JOINT LeftElbow
                            {
OFFSET -0 -27 0.000
						CHANNELS 3 Xrotation Yrotation Zrotation
                                JOINT LeftWrist
                                {
OFFSET -0 -26 0.000
						CHANNELS 3 Xrotation Yrotation Zrotation
                                    JOINT LeftFinger0
                                    {
OFFSET -0.196 -2.56 3.210
						CHANNELS 3 Xrotation Yrotation Zrotation
                                        JOINT LeftFinger01
                                        {
OFFSET -0 -3.788 0.000
						CHANNELS 3 Xrotation Yrotation Zrotation
                                            JOINT LeftFinger0Nub
                                            {
OFFSET -0 -2.631 0.000
						CHANNELS 3 Xrotation Yrotation Zrotation
                                                End Site
                                                {
OFFSET 0 -2.256 0
                                                }
                                            }
                                        }
                                    }
                                    JOINT LeftFinger1
                                    {
OFFSET -0.523 -3.316 2.035
						CHANNELS 3 Xrotation Yrotation Zrotation
                                        JOINT LeftFinger11
                                        {
OFFSET 0.094 -5.366 1.028
						CHANNELS 3 Xrotation Yrotation Zrotation
                                            JOINT LeftFinger12
                                            {
OFFSET -0 -3.723 0.000
						CHANNELS 3 Xrotation Yrotation Zrotation
                                                JOINT LeftFinger1Nub
                                                {
OFFSET -0 -2.111 0.000
						CHANNELS 3 Xrotation Yrotation Zrotation
                                                    End Site
                                                    {
OFFSET 0 -1.857 0
                                                    }
                                                }
                                            }
                                        }
                                    }
                                    JOINT LeftFinger2
                                    {
OFFSET -0.532 -3.479 0.778
						CHANNELS 3 Xrotation Yrotation Zrotation
                                        JOINT LeftFinger21
                                        {
OFFSET 0.086 -5.322 0.323
						CHANNELS 3 Xrotation Yrotation Zrotation
                                            JOINT LeftFinger22
                                            {
OFFSET -0 -4.062 0.000
						CHANNELS 3 Xrotation Yrotation Zrotation
                                                JOINT LeftFinger2Nub
                                                {
OFFSET -0 -2.547 0.000
						CHANNELS 3 Xrotation Yrotation Zrotation
                                                    End Site
                                                    {
OFFSET 0 -2.031 0
                                                    }
                                                }
                                            }
                                        }
                                    }
                                    JOINT LeftFinger3
                                    {
OFFSET -0.553 -3.461 -0.133
						CHANNELS 3 Xrotation Yrotation Zrotation
                                        JOINT LeftFinger31
                                        {
OFFSET 0.023 -4.767 -0.493
						CHANNELS 3 Xrotation Yrotation Zrotation
                                            JOINT LeftFinger32
                                            {
OFFSET -0 -3.541 0.000
						CHANNELS 3 Xrotation Yrotation Zrotation
                                                JOINT LeftFinger3Nub
                                                {
OFFSET -0 -2.456 0.000
						CHANNELS 3 Xrotation Yrotation Zrotation
                                                    End Site
                                                    {
OFFSET 0 -1.91 0
                                                    }
                                                }
                                            }
                                        }
                                    }
                                    JOINT LeftFinger4
                                    {
OFFSET -0.483 -3.251 -1.236
						CHANNELS 3 Xrotation Yrotation Zrotation
                                        JOINT LeftFinger41
                                        {
OFFSET 0.023 -4.259 -1.122
						CHANNELS 3 Xrotation Yrotation Zrotation
                                            JOINT LeftFinger42
                                            {
OFFSET -0 -2.835 0.000
						CHANNELS 3 Xrotation Yrotation Zrotation
                                                JOINT LeftFinger4Nub
                                                {
OFFSET -0 -1.792 0.000
						CHANNELS 3 Xrotation Yrotation Zrotation
                                                    End Site
                                                    {
OFFSET 0 -1.692 0
                                                    }
                                                }
                                            }
                                        }
                                    }
                                }
                            }
                        }
                    }
                }
            }
        }
    }
}
MOTION

Frames: 9
Frame Time: 0.017
-214.46 30.01 165.33 118.90 6.83 13.10 -5.45 -6.95 8.48 180.00 68.79 180.00 18.60 15.90 49.94 -2.90 3.42 35.67 0.00 79.57 0.00 13.78 17.17 -1.44 2.42 -7.58 -14.58 0.75 -2.14 -3.63 1.53 -2.94 -5.94 -1.73 4.11 0.67 10.51 69.07 22.17 -9.95 22.97 17.37 22.55 -11.94 -4.07 -13.15 -53.05 -17.82 -62.69 -1.62 16.97 -9.66 24.11 7.53 -101.85 -0 55.23 -93.16 -0 25.40 126.25 -0 0.00 0 -0 0.00 -15 -0 59.78 0 -0 0.93 0 -0 0.46 0 -0 0.00 0 -0 22.36 0 -0 22.36 0 -0 22.36 0 -0 0.00 15 -0 12.54 0 -0 12.54 0 -0 12.54 0 -0 0.00 25 -0 2.62 0 -0 2.62 0 -0 2.62 -19.20 3.99 -7.52 -31.72 -50.94 93.86 -40.88 6.71 -10.39 -12.42 25.19 -3.54 -14.79 0 -40.91 -19.53 0 3.30 22.86 0 0.00 0.00 0 0.00 -15.00 0 -6.25 0.00 0 -2.19 0.00 0 -1.09 0.00 0 0.00 0.00 0 -10.60 0.00 0 -10.60 0.00 0 -10.60 0.00 0 0.00 15.00 0 -15.57 0.00 0 -15.57 0.00 0 -15.57 0.00 0 0.00 25.00 0 -13.05 0.00 0 -13.05 0.00 0 -13.05 
-214.61 29.91 165.98 119.03 6.79 13.63 -5.84 -7.62 8.88 180.00 68.30 180.00 18.15 15.97 49.90 -3.08 3.03 35.85 0.00 79.58 0.00 13.12 16.90 -1.95 2.68 -6.89 -15.13 0.82 -1.97 -3.78 1.61 -2.63 -6.16 -1.56 2.04 0.71 11.37 70.76 23.45 -9.54 22.46 18.10 22.23 -10.15 -3.84 -13.53 -52.97 -17.06 -64.4 -2.01 16.63 -9.91 23.85 7.98 -101.63 -0 55.40 -92.73 -0 25.58 126.11 -0 0.00 0 -0 0.00 -15 -0 61.49 0 -0 1.26 0 -0 0.63 0 -0 0.00 0 -0 23.37 0 -0 23.37 0 -0 23.37 0 -0 0.00 15 -0 13.71 0 -0 13.71 0 -0 13.71 0 -0 0.00 25 -0 3.46 0 -0 3.46 0 -0 3.46 -19.16 6.13 -7.88 -32.40 -51.37 94.61 -41.66 7.21 -10.77 -12.66 25.34 -3.26 -14.60 0 -41.20 -19.15 0 3.02 23.18 0 0.00 0.00 0 0.00 -15.00 0 -6.28 0.00 0 -2.29 0.00 0 -1.14 0.00 0 0.00 0.00 0 -10.76 0.00 0 -10.76 0.00 0 -10.76 0.00 0 0.00 15.00 0 -15.45 0.00 0 -15.45 0.00 0 -15.45 0.00 0 0.00 25.00 0 -13.33 0.00 0 -13.33 0.00 0 -13.33 
-214.75 28.88 166.66 119.03 6.79 13.63 -5.86 -8.26 9.72 -180.00 68.04 -180.00 19.23 15.89 50.87 -3.34 2.85 36.29 0.00 79.62 0.00 12.69 16.53 -2.95 3.12 -6.48 -15.36 0.90 -1.57 -3.83 1.72 -2.35 -6.24 -1.59 2.03 0.75 11.46 70.53 23.72 -9.19 21.90 18.87 22.17 -10.21 -4.47 -13.77 -52.74 -16.31 -66.36 -2.42 16.11 -8.12 24.32 7.18 -102.38 -0 55.53 -94.22 -0 25.71 125.84 -0 0.00 0 -0 0.00 -15 -0 63.36 0 -0 1.99 0 -0 0.99 0 -0 0.00 0 -0 23.37 0 -0 23.37 0 -0 23.37 0 -0 0.00 15 -0 15.33 0 -0 15.33 0 -0 15.33 0 -0 0.00 25 -0 7.12 0 -0 7.12 0 -0 7.12 -18.88 6.25 -7.58 -32.97 -51.72 95.1 -42.60 7.56 -10.73 -12.66 25.65 -3.28 -14.48 0 -41.37 -18.91 0 2.84 23.47 0 0.00 0.00 0 0.00 -15.00 0 -6.62 0.00 0 -2.35 0.00 0 -1.17 0.00 0 0.00 0.00 0 -11.00 0.00 0 -11.00 0.00 0 -11.00 0.00 0 0.00 15.00 0 -15.53 0.00 0 -15.53 0.00 0 -15.53 0.00 0 0.00 25.00 0 -13.62 0.00 0 -13.62 0.00 0 -13.62 
-214.87 27.80 167.36 119.03 6.79 13.63 -6.24 -8.98 10.81 180.00 67.58 -180.00 18.90 16.10 51.17 -3.44 2.63 36.66 0.00 79.50 -0.00 12.39 15.69 -4.30 3.55 -5.87 -15.57 1.00 -1.40 -3.88 1.85 -2.06 -6.32 -1.63 2.01 0.78 5.57 39.61 18.95 -23.12 50.07 9.67 21.98 -10.27 -5.15 -14.02 -52.39 -15.43 -68.37 -3.08 15.56 -6.24 25.11 6.40 -103.21 -0 55.49 -95.88 -0 25.67 126.07 -0 0.00 0 -0 0.00 -15 -0 65.20 0 -0 3.19 0 -0 1.60 0 -0 0.00 0 -0 23.37 0 -0 23.37 0 -0 23.37 0 -0 0.00 15 -0 17.52 0 -0 17.52 0 -0 17.52 0 -0 0.00 25 -0 9.75 0 -0 9.75 0 -0 9.75 -18.52 6.28 -7.20 -33.37 -51.93 95.15 -43.59 8.01 -10.69 -12.56 25.95 -3.28 -14.40 0 -41.45 -18.75 0 2.77 23.65 0 0.00 0.00 0 0.00 -15.00 0 -6.87 0.00 0 -2.63 0.00 0 -1.32 0.00 0 0.00 0.00 0 -11.34 0.00 0 -11.34 0.00 0 -11.34 0.00 0 0.00 15.00 0 -15.84 0.00 0 -15.84 0.00 0 -15.84 0.00 0 0.00 25.00 0 -14.13 0.00 0 -14.13 0.00 0 -14.13 
-214.96 26.66 168.07 119.29 6.82 14.19 -6.80 -9.86 11.47 180.00 67.04 180.00 18.64 16.20 51.48 -3.44 1.99 36.82 0.00 79.26 -0.00 11.87 14.90 -4.84 3.90 -5.25 -16.06 1.08 -1.24 -4.01 1.96 -1.77 -6.52 -1.66 1.99 0.82 5.63 38.64 19.27 -23.41 50.17 10.29 21.82 -10.31 -5.90 -14.34 -51.88 -14.38 -70.44 -4.05 14.95 -10.63 23.04 10.16 -101.42 -0 55.25 -92.3 -0 25.43 127.24 -0 0.00 0 -0 0.00 -15 -0 67.90 0 -0 4.61 0 -0 2.31 0 -0 0.00 0 -0 24.98 0 -0 24.98 0 -0 24.98 0 -0 0.00 15 -0 19.64 0 -0 19.64 0 -0 19.64 0 -0 0.00 25 -0 10.90 0 -0 10.90 0 -0 10.90 -18.00 6.23 -6.67 -33.54 -52.06 94.63 -44.82 9.02 -10.43 -12.00 25.89 -3.66 -14.30 0 -41.46 -18.56 0 2.76 23.93 0 0.00 0.00 0 0.00 -15.00 0 -6.78 0.00 0 -3.58 0.00 0 -1.79 0.00 0 0.00 0.00 0 -11.90 0.00 0 -11.90 0.00 0 -11.90 0.00 0 0.00 15.00 0 -16.32 0.00 0 -16.32 0.00 0 -16.32 0.00 0 0.00 25.00 0 -15.02 0.00 0 -15.02 0.00 0 -15.02 
-215.03 25.45 168.81 119.67 6.69 14.74 -7.63 -10.62 12.34 -180.00 66.49 180.00 18.29 16.25 51.77 -3.51 1.32 36.95 -0.00 79.05 -0.00 11.66 14.17 -4.70 4.23 -4.46 -16.50 1.16 -1.03 -4.12 2.04 -1.42 -6.69 -1.70 1.96 0.86 5.67 37.54 19.60 -23.87 50.27 10.89 21.76 -10.29 -6.78 -15.19 -51.24 -13.02 -72.62 -5.45 14.53 -10.63 22.47 11.06 -101.61 -0 54.42 -92.69 -0 24.60 129.56 -0 0.00 0 -0 0.00 -15 -0 71.03 0 -0 6.13 0 -0 3.07 0 -0 0.00 0 -0 26.97 0 -0 26.97 0 -0 26.97 0 -0 0.00 15 -0 22.80 0 -0 22.80 0 -0 22.80 0 -0 0.00 25 -0 13.95 0 -0 13.95 0 -0 13.95 -17.29 6.08 -5.92 -33.61 -52.16 93.6 -46.04 9.9 -10.51 -11.71 25.92 -3.87 -14.21 0 -41.46 -18.38 0 2.76 24.08 0 0.00 0.00 0 0.00 -15.00 0 -6.52 0.00 0 -5.34 0.00 0 -2.67 0.00 0 0.00 0.00 0 -12.81 0.00 0 -12.81 0.00 0 -12.81 0.00 0 0.00 15.00 0 -17.08 0.00 0 -17.08 0.00 0 -17.08 0.00 0 0.00 25.00 0 -16.26 0.00 0 -16.26 0.00 0 -16.26 
-215.15 24.13 169.60 121.37 5.00 16.10 -9.98 -9.97 12.39 -180.00 66.00 -180.00 17.87 15.89 51.91 -5.16 1.12 37.19 -0.00 79.16 0.00 10.82 13.20 -4.24 3.74 -2.51 -17.25 1.00 -0.56 -4.33 1.71 -0.68 -7.02 -1.75 1.93 0.90 5.70 36.17 19.94 -24.44 50.31 11.57 21.78 -10.33 -7.75 -16.66 -50.43 -11.46 -74.97 -7.35 14.47 -10.61 21.66 12.06 -101.92 -0 53.06 -93.29 -0 23.23 133.14 -0 0.00 0 -0 0.00 -15 -0 72.77 0 -0 10.76 0 -0 5.38 0 -0 0.00 0 -0 33.16 0 -0 33.16 0 -0 33.16 0 -0 0.00 15 -0 26.06 0 -0 26.06 0 -0 26.06 0 -0 0.00 25 -0 17.21 0 -0 17.21 0 -0 17.21 -16.26 5.96 -5.09 -34.30 -52.32 92.67 -47.39 10.84 -10.56 -11.25 25.99 -4.49 -14.09 0 -41.44 -18.14 0 2.78 24.27 0 0.00 0.00 0 0.00 -15.00 0 -9.13 0.00 0 -5.25 0.00 0 -2.63 0.00 0 0.00 0.00 0 -14.34 0.00 0 -14.34 0.00 0 -14.34 0.00 0 0.00 15.00 0 -18.51 0.00 0 -18.51 0.00 0 -18.51 0.00 0 0.00 25.00 0 -17.71 0.00 0 -17.71 0.00 0 -17.71 
-215.44 22.77 170.49 122.34 4.99 16.69 -11.45 -11.03 13.66 180.00 65.41 180.00 17.32 15.67 52.25 -6.08 0.31 37.78 -0.00 79.07 -0.00 10.46 11.59 -4.81 3.78 -1.38 -17.60 0.99 -0.27 -4.43 1.64 -0.22 -7.16 -1.79 1.90 0.96 5.51 34.66 20.20 -24.93 50.16 12.32 21.88 -10.40 -8.80 -18.52 -49.63 -9.99 -77.25 -9.79 14.82 -10.58 20.72 13.01 -102.03 -0 51.39 -93.53 -0 21.57 137.39 -0 0.00 0 -0 0.00 -15 -0 74.98 0 -0 15.68 0 -0 7.84 0 -0 0.00 0 -0 35.54 0 -0 35.54 0 -0 35.54 0 -0 0.00 15 -0 28.98 0 -0 28.98 0 -0 28.98 0 -0 0.00 25 -0 19.80 0 -0 19.80 0 -0 19.80 -15.55 5.90 -4.53 -35.49 -52.42 92.43 -48.89 11.78 -10.47 -10.55 26.1 -5.49 -13.94 0 -41.38 -17.84 0 2.84 24.58 0 0.00 0.00 0 0.00 -15.00 0 -10.87 0.00 0 -6.22 0.00 0 -3.11 0.00 0 0.00 0.00 0 -16.30 0.00 0 -16.30 0.00 0 -16.30 0.00 0 0.00 15.00 0 -20.30 0.00 0 -20.30 0.00 0 -20.30 0.00 0 0.00 25.00 0 -19.11 0.00 0 -19.11 0.00 0 -19.11 
-215.78 21.39 171.41 123.44 5.03 17.37 -13.13 -12.14 14.47 -180.00 64.95 -180.00 17.17 15.60 52.43 -6.67 -0.88 38.74 0.00 78.93 0.00 9.55 9.83 -5.08 3.77 -0.10 -18.00 0.97 0.05 -4.54 1.53 0.29 -7.33 -1.84 1.85 1.02 4.41 33.59 20.18 -24.57 49.56 13.08 21.90 -10.40 -9.85 -20.52 -48.79 -8.46 -79.42 -12.57 15.44 -10.63 19.82 13.83 -101.93 -0 49.53 -93.32 -0 19.71 142.09 -0 0.00 0 -0 0.00 -15 -0 81.03 0 -0 12.02 0 -0 6.01 0 -0 0.00 0 -0 36.45 0 -0 36.45 0 -0 36.45 0 -0 0.00 15 -0 31.42 0 -0 31.42 0 -0 31.42 0 -0 0.00 25 -0 22.44 0 -0 22.44 0 -0 22.44 -15.01 6.00 -4.17 -37.26 -52.44 92.9 -50.57 12.71 -10.28 -9.80 26.14 -6.57 -13.76 0 -41.29 -17.47 0 2.93 24.86 0 0.00 0.00 0 0.00 -15.00 0 -12.89 0.00 0 -7.04 0.00 0 -3.52 0.00 0 0.00 0.00 0 -15.64 0.00 0 -15.64 0.00 0 -15.64 0.00 0 0.00 15.00 0 -22.27 0.00 0 -22.27 0.00 0 -22.27 0.00 0 0.00 25.00 0 -20.53 0.00 0 -20.53 0.00 0 -20.53 
